<svg width="21" height="21" viewBox="0 0 21 21" fill="none" xmlns="http://www.w3.org/2000/svg">
<path d="M16.106 3.63583C15.4103 3.63583 14.8459 4.19952 14.8459 4.89539C14.8459 5.59099 15.4103 6.15549 16.106 6.15549C16.8016 6.15549 17.366 5.59099 17.366 4.89539C17.366 4.19979 16.8016 3.63556 16.106 3.63583Z" fill="#202025"/>
<path fill-rule="evenodd" clip-rule="evenodd" d="M5.10881 10.5003C5.10881 7.52239 7.52302 5.10821 10.5008 5.10794C13.4787 5.10794 15.8924 7.52239 15.8924 10.5003C15.8924 13.4781 13.4788 15.8913 10.5011 15.8913C7.52316 15.8913 5.10881 13.4781 5.10881 10.5003ZM14.001 10.5C14.001 8.567 12.434 7.00009 10.5011 7.00009C8.56791 7.00009 7.00098 8.567 7.00098 10.5C7.00098 12.433 8.56791 14.0002 10.5011 14.0002C12.434 14.0002 14.001 12.433 14.001 10.5Z" fill="#202025"/>
<path fill-rule="evenodd" clip-rule="evenodd" d="M6.17145 0.0632852C7.29151 0.0125502 7.64933 0 10.5011 0C13.3507 0 13.7072 0.0125502 14.8268 0.0632852C15.9447 0.114554 16.708 0.291593 17.3775 0.551142C18.0687 0.819236 18.6528 1.17785 19.2368 1.76211C19.8211 2.34556 20.1797 2.93141 20.4489 3.62194C20.7069 4.28977 20.8841 5.05267 20.9366 6.17044C20.9869 7.29061 21 7.64843 21 10.5C21 13.3516 20.9869 13.7086 20.9366 14.8288C20.8841 15.946 20.7069 16.7092 20.4489 17.377C20.1797 18.0675 19.8211 18.6531 19.2368 19.2368C18.6535 19.8208 18.0686 20.1805 17.3781 20.4489C16.71 20.7084 15.9462 20.8854 14.8284 20.9364C13.7084 20.9874 13.3516 21 10.4997 21C7.64826 21 7.29057 20.9874 6.17052 20.9364C5.053 20.8854 4.2897 20.7084 3.62172 20.4489C2.93145 20.1805 2.34572 19.8208 1.76226 19.2368C1.1784 18.6531 0.819647 18.0675 0.551282 17.3767C0.29173 16.7092 0.114823 15.9463 0.0634195 14.8285C0.0126839 13.7083 0 13.3516 0 10.5C0 9.00198 0.0036049 8.19209 0.0142861 7.59849C0.0240327 7.06204 0.0395204 6.70182 0.063286 6.17017C0.113488 5.05294 0.290662 4.28977 0.551015 3.62168C0.820047 2.93141 1.17894 2.34556 1.76293 1.76211C2.34666 1.17812 2.93238 0.819503 3.62306 0.551142C4.29063 0.291593 5.05367 0.114554 6.17145 0.0632852ZM9.55912 1.89241H10.5011C13.3046 1.89241 13.6369 1.90256 14.744 1.95276C15.7677 1.99949 16.3234 2.17066 16.6935 2.31432C17.1835 2.5047 17.5328 2.73221 17.9002 3.09964C18.2676 3.46707 18.4951 3.81714 18.6859 4.30713C18.8296 4.67696 19.0009 5.23238 19.0475 6.25615C19.0656 6.65429 19.0786 6.95229 19.0878 7.30103C19.1042 7.92213 19.1088 8.70372 19.1088 10.4979C19.1088 12.3014 19.1042 13.0819 19.0875 13.7043C19.0783 14.0488 19.0654 14.3449 19.0475 14.7393C19.0006 15.7631 18.8296 16.3188 18.6859 16.6883C18.4957 17.1783 18.2676 17.5273 17.9002 17.8945C17.5326 18.2622 17.1837 18.4897 16.6935 18.6801C16.3238 18.8243 15.7677 18.9949 14.744 19.0416C13.6371 19.0921 13.3046 19.103 10.5011 19.103C7.69726 19.103 7.36507 19.0921 6.2581 19.0416C5.23431 18.9944 4.67876 18.8235 4.30839 18.6798C3.81839 18.4894 3.46831 18.2619 3.10088 17.8945C2.73331 17.5268 2.50594 17.1778 2.31501 16.6875C2.17135 16.318 2.00005 15.7623 1.95345 14.7385C1.90325 13.6317 1.89311 13.2992 1.89311 10.4952C1.89311 7.69115 1.90325 7.36057 1.95345 6.25348C2.00032 5.22997 2.17135 4.67429 2.31501 4.30419C2.5054 3.8142 2.73331 3.46413 3.10088 3.0967C3.46831 2.72927 3.81839 2.5015 4.30839 2.31084C4.67849 2.16638 5.23431 1.99602 6.2581 1.94876C7.22675 1.90496 7.6022 1.89188 9.55912 1.88974V1.89241Z" fill="#202025"/>
</svg>
